<?xml version="1.0" encoding="UTF-8"?><svg id="Calque_2" xmlns="http://www.w3.org/2000/svg" xmlns:xlink="http://www.w3.org/1999/xlink" viewBox="0 0 690.03 156.68"><defs><style>.cls-1{fill:#1c2024;}.cls-1,.cls-2{stroke-width:0px;}.cls-2{fill:url(#Dégradé_sans_nom_15);}</style><linearGradient id="Dégradé_sans_nom_15" x1="0" y1="78.34" x2="162.27" y2="78.34" gradientUnits="userSpaceOnUse"><stop offset="0" stop-color="#ef5f00"/><stop offset=".5" stop-color="#f76b15"/><stop offset="1" stop-color="#ffc53d"/></linearGradient></defs><g id="Calque_1-2"><path class="cls-2" d="m51.16,42.05c.99-1.95,1.55-4.16,1.55-6.5,0-7.98-6.47-14.45-14.44-14.45s-14.45,6.47-14.45,14.45,6.47,14.44,14.45,14.44c2.82,0,5.45-.81,7.67-2.22l9.65,11.06c1.5-2.11,3.25-4.03,5.2-5.73l-9.63-11.05Zm-14.63-14.39c-2.74.56-4.97,2.68-5.68,5.39-.12.45-.52.74-.97.74-.08,0-.16-.01-.25-.03-.53-.14-.85-.69-.71-1.22.9-3.44,3.73-6.12,7.2-6.84.55-.12,1.07.23,1.19.78.11.54-.24,1.07-.78,1.18Zm15.98,64.03c-1.07-2.31-1.88-4.76-2.39-7.32l-23.59,8.49c-2.57-3.94-7.02-6.55-12.08-6.55-7.98,0-14.45,6.47-14.45,14.45s6.47,14.44,14.45,14.44,14.44-6.47,14.44-14.44c0-.19,0-.38-.02-.57l23.64-8.5Zm-39.8,1.18c-2.74.56-4.97,2.68-5.68,5.39-.12.45-.52.74-.97.74-.08,0-.16,0-.25-.03-.53-.14-.85-.69-.71-1.22.9-3.44,3.73-6.12,7.2-6.84.55-.12,1.07.23,1.19.78.11.54-.24,1.07-.78,1.18Zm135.12-22.76c-5.96,0-11.07,3.61-13.28,8.76l-19.24-1.6c0,.22,0,.44,0,.66,0,2.4-.26,4.74-.75,7l18.94,1.57c.95,7.05,7,12.5,14.32,12.5,7.97,0,14.44-6.47,14.44-14.44s-6.47-14.45-14.44-14.45Zm-1.74,6.56c-2.74.56-4.97,2.68-5.68,5.39-.12.45-.52.74-.97.74-.08,0-.16-.01-.25-.03-.53-.14-.85-.69-.71-1.22.9-3.44,3.73-6.12,7.2-6.84.55-.12,1.07.23,1.19.78.11.54-.24,1.07-.78,1.18ZM119.74,0c-7.98,0-14.45,6.47-14.45,14.45,0,4.22,1.81,8.02,4.7,10.66l-14.65,22.53c2.38,1.02,4.62,2.31,6.67,3.84l14.88-22.87c.92.18,1.87.28,2.85.28,7.97,0,14.44-6.47,14.44-14.44S127.71,0,119.74,0Zm-1.74,6.56c-2.74.56-4.97,2.68-5.68,5.39-.12.45-.52.74-.97.74-.08,0-.16,0-.25-.03-.53-.14-.85-.69-.71-1.22.9-3.44,3.73-6.12,7.2-6.84.55-.12,1.07.23,1.19.78.11.54-.24,1.07-.78,1.18Zm-35.58,44.45c-14.86,0-26.91,12.05-26.91,26.91s12.05,26.89,26.91,26.89,26.89-12.05,26.89-26.89-12.05-26.91-26.89-26.91Zm-3.24,12.22c-5.1,1.04-9.26,4.99-10.58,10.04-.22.84-.97,1.38-1.81,1.38-.15,0-.3-.02-.47-.06-.99-.26-1.58-1.29-1.32-2.27,1.68-6.41,6.95-11.4,13.41-12.74,1.02-.22,1.99.43,2.22,1.45.2,1.01-.45,1.99-1.45,2.2Zm18.43,64.58l-4.37-18.81c-2.39.84-4.9,1.4-7.51,1.66l4.37,18.81c-4.57,2.42-7.69,7.23-7.69,12.77,0,7.97,6.47,14.44,14.45,14.44s14.44-6.47,14.44-14.44-6.07-14.04-13.69-14.43Zm-2.49,6.54c-2.74.56-4.97,2.68-5.68,5.39-.12.45-.52.74-.97.74-.08,0-.16-.01-.25-.03-.53-.14-.85-.69-.71-1.22.9-3.44,3.73-6.12,7.2-6.84.55-.12,1.07.23,1.19.78.11.54-.24,1.07-.78,1.18Z"/><path class="cls-1" d="m227.03,51.02c0,1.15-.23,2.22-.7,3.23-.46,1.01-1.1,1.89-1.91,2.65-.81.76-1.74,1.36-2.81,1.81-1.07.45-2.21.67-3.42.67s-2.28-.22-3.3-.67c-1.02-.45-1.93-1.05-2.72-1.81-.79-.76-1.41-1.64-1.86-2.65-.45-1.01-.67-2.08-.67-3.23s.22-2.28.67-3.3c.45-1.02,1.07-1.92,1.86-2.7s1.7-1.38,2.72-1.81,2.12-.65,3.3-.65,2.35.22,3.42.65,2.01,1.04,2.81,1.81,1.44,1.67,1.91,2.7.7,2.12.7,3.3Zm-1.67,13.21v48.22h-14.42v-48.22h14.42Z"/><path class="cls-1" d="m232.33,112.45v-48.22h8.93c.9,0,1.65.2,2.26.6.6.4,1.03,1.01,1.28,1.81l.84,2.79c.93-.87,1.89-1.67,2.88-2.42.99-.74,2.05-1.37,3.19-1.88,1.13-.51,2.36-.91,3.67-1.21,1.32-.29,2.75-.44,4.3-.44,2.63,0,4.97.46,7,1.37,2.03.91,3.74,2.19,5.14,3.81s2.45,3.57,3.16,5.81c.71,2.25,1.07,4.69,1.07,7.32v30.64h-14.42v-30.64c0-2.36-.54-4.19-1.63-5.51-1.09-1.32-2.68-1.98-4.79-1.98-1.58,0-3.07.34-4.46,1.02-1.4.68-2.73,1.6-4,2.74v34.36h-14.42Z"/><path class="cls-1" d="m298.54,113.19c-2.29,0-4.32-.33-6.07-1-1.75-.67-3.22-1.61-4.42-2.84s-2.1-2.7-2.72-4.44c-.62-1.74-.93-3.67-.93-5.81v-24.92h-4.09c-.74,0-1.38-.24-1.91-.72-.53-.48-.79-1.19-.79-2.12v-5.63l7.67-1.49,2.84-11.76c.37-1.49,1.43-2.23,3.16-2.23h7.53v14.09h11.72v9.86h-11.72v23.95c0,1.12.27,2.04.81,2.77.54.73,1.33,1.09,2.35,1.09.53,0,.97-.05,1.33-.16.36-.11.67-.23.93-.37.26-.14.51-.26.74-.37.23-.11.5-.16.81-.16.43,0,.78.1,1.05.3.26.2.53.52.81.95l4.37,6.83c-1.86,1.4-3.95,2.44-6.28,3.14-2.32.7-4.73,1.05-7.21,1.05Z"/><path class="cls-1" d="m314.16,112.45v-48.22h8.56c.71,0,1.31.06,1.79.19.48.12.88.32,1.21.58.33.26.57.61.74,1.05.17.43.32.96.44,1.58l.79,4.51c1.77-2.73,3.75-4.88,5.95-6.46,2.2-1.58,4.6-2.37,7.21-2.37,2.2,0,3.97.53,5.3,1.58l-1.86,10.6c-.12.65-.37,1.11-.74,1.37-.37.26-.87.4-1.49.4-.53,0-1.15-.07-1.86-.21-.71-.14-1.61-.21-2.7-.21-3.78,0-6.76,2.02-8.93,6.04v29.57h-14.42Z"/><path class="cls-1" d="m380.29,112.45c-1.36,0-2.39-.19-3.09-.56-.7-.37-1.28-1.15-1.74-2.33l-1.02-2.65c-1.21,1.02-2.37,1.92-3.49,2.7-1.12.78-2.27,1.43-3.46,1.98-1.19.54-2.46.95-3.81,1.21-1.35.26-2.84.4-4.49.4-2.2,0-4.2-.29-6-.86-1.8-.58-3.32-1.42-4.58-2.54-1.26-1.12-2.22-2.51-2.91-4.18-.68-1.66-1.02-3.58-1.02-5.76,0-1.71.43-3.47,1.3-5.27.87-1.8,2.37-3.44,4.51-4.92,2.14-1.48,5.02-2.71,8.65-3.71,3.63-1,8.2-1.49,13.72-1.49v-2.06c0-2.85-.58-4.9-1.74-6.17-1.16-1.27-2.81-1.9-4.95-1.9-1.71,0-3.1.19-4.18.56-1.09.37-2.05.79-2.91,1.26-.85.46-1.68.88-2.49,1.26-.81.37-1.77.56-2.88.56-.99,0-1.84-.24-2.53-.72-.7-.48-1.25-1.08-1.65-1.79l-2.6-4.51c2.91-2.57,6.15-4.49,9.7-5.74,3.55-1.26,7.35-1.88,11.42-1.88,2.91,0,5.54.47,7.88,1.42,2.34.95,4.32,2.26,5.95,3.95,1.63,1.69,2.88,3.7,3.74,6.02.87,2.32,1.3,4.87,1.3,7.63v30.13h-6.6Zm-16.55-8.79c1.86,0,3.49-.33,4.88-.98,1.4-.65,2.81-1.7,4.23-3.16v-6.6c-2.88,0-5.25.19-7.11.56-1.86.38-3.33.84-4.42,1.41-1.09.56-1.84,1.2-2.25,1.92-.42.72-.63,1.5-.63,2.34,0,1.66.45,2.82,1.35,3.49.9.67,2.22,1.01,3.95,1.01Z"/><path class="cls-1" d="m428.62,71.99c-.16.16-.3.29-.44.4-.14.11-.33.16-.58.16-.31,0-.74-.21-1.28-.63-.54-.42-1.26-.88-2.16-1.37-.9-.5-2.02-.95-3.37-1.37-1.35-.42-2.98-.63-4.91-.63-2.67,0-5.03.47-7.09,1.42-2.06.95-3.8,2.3-5.21,4.07-1.41,1.77-2.49,3.91-3.23,6.42-.74,2.51-1.12,5.33-1.12,8.46s.38,6.14,1.14,8.65c.76,2.51,1.84,4.63,3.23,6.35,1.4,1.72,3.08,3.03,5.07,3.93,1.98.9,4.19,1.35,6.6,1.35,2.23,0,4.1-.26,5.6-.79,1.5-.53,2.74-1.1,3.72-1.72s1.75-1.19,2.33-1.72c.57-.53,1.03-.79,1.37-.79.4,0,.71.16.93.46l1.21,1.49c-.71.93-1.61,1.8-2.7,2.6-1.09.81-2.31,1.5-3.67,2.09-1.36.59-2.84,1.05-4.44,1.37-1.6.33-3.26.49-5,.49-2.95,0-5.63-.54-8.07-1.6-2.43-1.07-4.53-2.62-6.28-4.65-1.75-2.03-3.12-4.52-4.09-7.46-.98-2.94-1.46-6.29-1.46-10.04,0-3.53.47-6.76,1.4-9.67.93-2.91,2.29-5.42,4.07-7.53,1.78-2.11,3.97-3.74,6.56-4.91,2.59-1.16,5.56-1.74,8.9-1.74,3.01,0,5.68.48,8.02,1.44,2.34.96,4.38,2.26,6.11,3.91l-1.16,1.58Z"/><path class="cls-1" d="m455.77,65.07c3.32,0,6.28.57,8.9,1.7,2.62,1.13,4.83,2.74,6.63,4.81,1.8,2.08,3.17,4.58,4.12,7.51.95,2.93,1.42,6.21,1.42,9.83s-.47,6.9-1.42,9.81c-.95,2.91-2.32,5.41-4.12,7.49-1.8,2.08-4.01,3.67-6.63,4.79s-5.59,1.67-8.9,1.67-6.29-.56-8.9-1.67c-2.62-1.12-4.84-2.71-6.65-4.79-1.81-2.08-3.19-4.57-4.14-7.49-.95-2.91-1.42-6.18-1.42-9.81s.47-6.9,1.42-9.83c.95-2.93,2.32-5.43,4.14-7.51,1.81-2.08,4.03-3.68,6.65-4.81,2.62-1.13,5.59-1.7,8.9-1.7Zm0,44.13c2.76,0,5.17-.47,7.23-1.42,2.06-.95,3.78-2.3,5.16-4.07,1.38-1.77,2.41-3.9,3.09-6.39.68-2.5,1.02-5.29,1.02-8.39s-.34-5.86-1.02-8.37c-.68-2.51-1.71-4.66-3.09-6.44-1.38-1.78-3.1-3.15-5.16-4.12-2.06-.96-4.47-1.44-7.23-1.44s-5.17.48-7.23,1.44c-2.06.96-3.78,2.33-5.16,4.12-1.38,1.78-2.42,3.93-3.12,6.44-.7,2.51-1.05,5.3-1.05,8.37s.35,5.9,1.05,8.39c.7,2.5,1.74,4.63,3.12,6.39,1.38,1.77,3.1,3.12,5.16,4.07,2.06.95,4.47,1.42,7.23,1.42Z"/><path class="cls-1" d="m486.13,112.08v-46.27h2.42c.81,0,1.27.39,1.4,1.16l.42,6.98c2.11-2.67,4.56-4.81,7.37-6.44s5.93-2.44,9.37-2.44c2.54,0,4.78.4,6.72,1.21,1.94.81,3.54,1.97,4.81,3.49,1.27,1.52,2.23,3.35,2.88,5.49.65,2.14.98,4.56.98,7.25v29.57h-4.42v-29.57c0-4.34-.99-7.74-2.98-10.21-1.98-2.46-5.02-3.7-9.11-3.7-3.04,0-5.86.78-8.46,2.35-2.6,1.57-4.93,3.71-6.98,6.44v34.69h-4.42Z"/><path class="cls-1" d="m534.12,112.08v-46.27h2.42c.81,0,1.27.39,1.4,1.16l.42,6.98c2.11-2.67,4.56-4.81,7.37-6.44s5.93-2.44,9.37-2.44c2.54,0,4.78.4,6.72,1.21,1.94.81,3.54,1.97,4.81,3.49,1.27,1.52,2.23,3.35,2.88,5.49.65,2.14.98,4.56.98,7.25v29.57h-4.42v-29.57c0-4.34-.99-7.74-2.98-10.21-1.98-2.46-5.02-3.7-9.11-3.7-3.04,0-5.86.78-8.46,2.35-2.6,1.57-4.93,3.71-6.97,6.44v34.69h-4.42Z"/><path class="cls-1" d="m599.54,65.07c2.6,0,5.01.45,7.23,1.35,2.22.9,4.14,2.21,5.77,3.93,1.63,1.72,2.9,3.84,3.81,6.35.91,2.51,1.37,5.39,1.37,8.65,0,.68-.1,1.15-.3,1.4s-.52.37-.95.37h-33.39v.88c0,3.47.4,6.53,1.21,9.16.81,2.64,1.95,4.84,3.44,6.63,1.49,1.78,3.29,3.12,5.39,4.02,2.11.9,4.46,1.35,7.07,1.35,2.33,0,4.34-.26,6.04-.77,1.71-.51,3.14-1.08,4.3-1.72,1.16-.63,2.08-1.21,2.77-1.72.68-.51,1.18-.77,1.49-.77.4,0,.71.16.93.46l1.21,1.49c-.74.93-1.73,1.8-2.95,2.6s-2.59,1.5-4.09,2.07c-1.5.57-3.12,1.03-4.84,1.37s-3.45.51-5.18.51c-3.16,0-6.04-.55-8.65-1.65-2.6-1.1-4.84-2.71-6.7-4.81-1.87-2.11-3.31-4.69-4.32-7.74-1.02-3.05-1.53-6.55-1.53-10.49,0-3.32.47-6.38,1.42-9.18s2.31-5.22,4.09-7.25c1.78-2.03,3.97-3.62,6.56-4.77,2.59-1.15,5.53-1.72,8.81-1.72Zm.07,3.3c-2.38,0-4.52.37-6.41,1.12-1.89.74-3.52,1.81-4.9,3.21-1.38,1.4-2.49,3.07-3.34,5.02-.85,1.95-1.42,4.14-1.69,6.56h30.46c0-2.48-.34-4.7-1.02-6.67-.68-1.97-1.64-3.63-2.88-5-1.24-1.36-2.72-2.41-4.46-3.14-1.73-.73-3.65-1.09-5.76-1.09Z"/><path class="cls-1" d="m657.76,71.99c-.16.16-.3.29-.44.4-.14.11-.33.16-.58.16-.31,0-.74-.21-1.28-.63-.54-.42-1.26-.88-2.16-1.37-.9-.5-2.02-.95-3.37-1.37-1.35-.42-2.98-.63-4.91-.63-2.67,0-5.03.47-7.09,1.42-2.06.95-3.8,2.3-5.21,4.07-1.41,1.77-2.49,3.91-3.23,6.42-.74,2.51-1.12,5.33-1.12,8.46s.38,6.14,1.14,8.65c.76,2.51,1.84,4.63,3.23,6.35,1.4,1.72,3.08,3.03,5.07,3.93,1.98.9,4.19,1.35,6.6,1.35,2.23,0,4.1-.26,5.6-.79,1.5-.53,2.74-1.1,3.72-1.72s1.75-1.19,2.33-1.72c.57-.53,1.03-.79,1.37-.79.4,0,.71.16.93.46l1.21,1.49c-.71.93-1.61,1.8-2.7,2.6-1.09.81-2.31,1.5-3.67,2.09-1.36.59-2.84,1.05-4.44,1.37-1.6.33-3.26.49-5,.49-2.95,0-5.63-.54-8.07-1.6-2.43-1.07-4.53-2.62-6.28-4.65-1.75-2.03-3.12-4.52-4.09-7.46-.98-2.94-1.46-6.29-1.46-10.04,0-3.53.47-6.76,1.4-9.67.93-2.91,2.29-5.42,4.07-7.53,1.78-2.11,3.97-3.74,6.56-4.91,2.59-1.16,5.56-1.74,8.91-1.74,3.01,0,5.68.48,8.02,1.44,2.34.96,4.38,2.26,6.12,3.91l-1.16,1.58Z"/><path class="cls-1" d="m679.89,112.82c-3.13,0-5.56-.87-7.3-2.6-1.74-1.74-2.6-4.42-2.6-8.04v-31.62h-6.65c-.34,0-.62-.09-.84-.28-.22-.19-.33-.45-.33-.79v-1.72l7.91-.56,1.1-16.55c.03-.28.15-.53.34-.74.2-.22.47-.33.81-.33h2.07v17.67h14.55v3.3h-14.55v31.39c0,1.27.16,2.36.49,3.28.33.92.77,1.67,1.35,2.25.57.59,1.25,1.02,2.02,1.3.77.28,1.61.42,2.51.42,1.12,0,2.08-.16,2.88-.49s1.5-.68,2.09-1.07,1.07-.74,1.44-1.07c.37-.33.67-.49.88-.49.25,0,.5.16.74.46l1.21,1.95c-1.18,1.3-2.67,2.35-4.49,3.14-1.81.79-3.7,1.19-5.65,1.19Z"/></g></svg>