<?xml version="1.0" encoding="UTF-8"?><svg id="Calque_2" xmlns="http://www.w3.org/2000/svg" xmlns:xlink="http://www.w3.org/1999/xlink" viewBox="0 0 197.87 191.06"><defs><style>.cls-1{fill:url(#Dégradé_sans_nom_15);stroke-width:0px;}</style><linearGradient id="Dégradé_sans_nom_15" x1="0" y1="95.53" x2="197.87" y2="95.53" gradientUnits="userSpaceOnUse"><stop offset="0" stop-color="#ef5f00"/><stop offset=".5" stop-color="#f76b15"/><stop offset="1" stop-color="#ffc53d"/></linearGradient></defs><g id="Calque_1-2"><path class="cls-1" d="m62.38,51.28c1.21-2.38,1.89-5.07,1.89-7.93,0-9.73-7.89-17.62-17.61-17.62s-17.62,7.89-17.62,17.62,7.89,17.61,17.62,17.61c3.44,0,6.65-.99,9.35-2.71l11.77,13.49c1.83-2.57,3.96-4.91,6.34-6.99l-11.74-13.47Zm-17.84-17.55c-3.34.68-6.06,3.27-6.93,6.57-.15.55-.63.9-1.18.9-.1,0-.2-.01-.3-.04-.65-.17-1.04-.84-.87-1.49,1.1-4.19,4.55-7.46,8.78-8.34.67-.15,1.3.28,1.45.95.13.66-.29,1.3-.95,1.44Zm19.49,78.08c-1.3-2.82-2.29-5.8-2.91-8.93l-28.77,10.35c-3.13-4.8-8.56-7.99-14.73-7.99-9.73,0-17.62,7.89-17.62,17.62s7.89,17.61,17.62,17.61,17.61-7.89,17.61-17.61c0-.23,0-.46-.02-.7l28.83-10.36Zm-48.53,1.44c-3.34.68-6.06,3.27-6.93,6.57-.15.55-.63.9-1.18.9-.1,0-.2-.01-.3-.04-.65-.17-1.04-.84-.87-1.49,1.1-4.19,4.55-7.46,8.78-8.34.67-.15,1.3.28,1.45.95.13.66-.29,1.3-.95,1.44Zm164.77-27.75c-7.27,0-13.5,4.4-16.19,10.68l-23.46-1.95c.01.27.01.54.01.8,0,2.93-.32,5.78-.91,8.54l23.1,1.91c1.16,8.6,8.54,15.24,17.46,15.24,9.72,0,17.61-7.89,17.61-17.61s-7.89-17.62-17.61-17.62Zm-2.12,8c-3.34.68-6.06,3.27-6.93,6.57-.15.55-.63.9-1.18.9-.1,0-.2-.01-.3-.04-.65-.17-1.04-.84-.87-1.49,1.1-4.19,4.55-7.46,8.78-8.34.67-.15,1.3.28,1.45.95.13.66-.29,1.3-.95,1.44ZM146.01,0c-9.73,0-17.62,7.89-17.62,17.62,0,5.15,2.21,9.78,5.73,13l-17.86,27.47c2.9,1.24,5.63,2.82,8.13,4.68l18.14-27.89c1.12.22,2.28.34,3.48.34,9.72,0,17.61-7.89,17.61-17.61S155.73,0,146.01,0Zm-2.12,8c-3.34.68-6.06,3.27-6.93,6.57-.15.55-.63.9-1.18.9-.1,0-.2-.01-.3-.04-.65-.17-1.04-.84-.87-1.49,1.1-4.19,4.55-7.46,8.78-8.34.67-.15,1.3.28,1.45.95.13.66-.29,1.3-.95,1.44Zm-43.39,54.21c-18.12,0-32.82,14.69-32.82,32.82s14.69,32.79,32.82,32.79,32.79-14.69,32.79-32.79-14.69-32.82-32.79-32.82Zm-3.95,14.9c-6.22,1.27-11.29,6.09-12.9,12.24-.27,1.02-1.18,1.68-2.2,1.68-.18,0-.36-.02-.57-.07-1.2-.32-1.93-1.57-1.61-2.77,2.04-7.81,8.47-13.9,16.35-15.53,1.25-.27,2.43.52,2.7,1.77.25,1.23-.55,2.43-1.77,2.68Zm22.48,78.75l-5.33-22.94c-2.91,1.02-5.98,1.71-9.16,2.02l5.33,22.94c-5.57,2.95-9.38,8.82-9.38,15.57,0,9.72,7.89,17.61,17.62,17.61s17.61-7.89,17.61-17.61-7.4-17.12-16.69-17.6Zm-3.04,7.97c-3.34.68-6.06,3.27-6.93,6.57-.15.55-.63.9-1.18.9-.1,0-.2-.01-.3-.04-.65-.17-1.04-.84-.87-1.49,1.1-4.19,4.55-7.46,8.78-8.34.67-.15,1.3.28,1.45.95.13.66-.29,1.3-.95,1.44Z"/></g></svg>